<?xml version="1.0" standalone="no"?>
<!DOCTYPE svg PUBLIC "-//W3C//DTD SVG 20010904//EN"
 "http://www.w3.org/TR/2001/REC-SVG-20010904/DTD/svg10.dtd">
<svg version="1.0" xmlns="http://www.w3.org/2000/svg"
 width="481.000000pt" height="481.000000pt" viewBox="0 0 481.000000 481.000000"
 preserveAspectRatio="xMidYMid meet">
<metadata>
Created by potrace 1.14, written by Peter Selinger 2001-2017
</metadata>
<g transform="translate(0.000000,481.000000) scale(0.100000,-0.100000)"
fill="#000000" stroke="none">
<path d="M1861 3806 c-8 -9 -11 -59 -9 -155 l3 -141 35 19 c149 83 257 90 397
26 l57 -26 43 21 43 20 0 115 c0 103 -2 115 -19 125 -12 6 -119 10 -279 10
-209 0 -262 -3 -271 -14z"/>
<path d="M2538 3809 c-16 -9 -18 -32 -18 -254 l0 -245 -238 0 c-219 0 -240 -2
-255 -18 -15 -16 -17 -50 -17 -271 0 -155 4 -260 10 -272 10 -18 24 -19 255
-19 l245 0 0 -244 c0 -194 3 -246 14 -255 9 -8 94 -11 287 -9 l274 3 5 250 5
250 251 3 252 2 6 31 c8 41 8 462 0 511 l-7 38 -251 2 -251 3 -3 245 c-2 180
-6 246 -15 252 -18 12 -529 9 -549 -3z"/>
<path d="M1345 3297 c-3 -7 -4 -136 -3 -287 l3 -275 252 -3 253 -2 2 -253 3
-252 285 0 285 0 3 115 3 115 -39 -38 c-23 -23 -47 -37 -63 -37 -20 0 -79 56
-277 260 -147 153 -264 282 -282 313 -53 90 -74 177 -67 273 l6 84 -180 0
c-136 0 -181 -3 -184 -13z"/>
<path d="M292 1748 l3 -223 111 1 c92 1 117 4 145 20 46 27 61 59 56 119 -4
41 -10 54 -38 77 -18 15 -28 28 -21 28 21 0 45 60 38 98 -12 75 -65 102 -201
102 l-95 0 2 -222z m193 87 c0 -29 -2 -30 -47 -33 l-48 -3 0 36 0 36 48 -3
c45 -3 47 -4 47 -33z m9 -141 c36 -36 6 -74 -60 -74 l-44 0 0 45 0 45 44 0
c27 0 51 -6 60 -16z"/>
<path d="M712 1749 l3 -224 45 0 45 0 3 73 3 72 33 0 c30 0 35 -5 57 -52 38
-81 55 -98 98 -98 21 0 40 3 44 6 3 3 -11 39 -31 80 l-36 74 22 16 c50 35 68
127 38 199 -23 54 -62 68 -204 73 l-122 4 2 -223z m228 102 c29 -56 0 -91 -76
-91 l-54 0 0 55 0 55 60 0 c48 0 61 -4 70 -19z"/>
<path d="M1144 1956 c-3 -8 -4 -29 -2 -48 3 -32 4 -33 56 -36 l52 -3 0 -125 0
-124 -56 0 -55 0 3 -47 3 -48 155 0 155 0 3 48 3 47 -55 0 -56 0 0 124 0 125
53 3 52 3 0 45 0 45 -153 3 c-125 2 -153 0 -158 -12z"/>
<path d="M1690 1954 c-177 -77 -179 -324 -4 -410 45 -22 64 -26 113 -22 113 8
181 84 181 202 l0 57 -102 -3 -103 -3 -3 -28 c-5 -41 14 -57 64 -57 24 0 44
-4 44 -9 0 -5 -14 -21 -32 -36 -27 -23 -39 -26 -72 -22 -53 7 -88 35 -105 84
-13 35 -13 46 0 79 17 44 68 84 108 84 15 0 44 -9 66 -20 22 -11 40 -20 41
-20 1 0 14 16 29 35 23 31 25 38 13 52 -39 48 -167 68 -238 37z"/>
<path d="M2092 1748 l3 -223 45 0 45 0 3 88 3 87 79 0 80 0 0 -85 c0 -81 1
-85 24 -91 13 -3 37 -4 52 -2 l29 3 0 220 0 220 -50 0 -50 0 -3 -88 -3 -88
-77 3 -77 3 -5 85 -5 85 -48 3 -47 3 2 -223z"/>
<path d="M2554 1956 c-3 -8 -4 -29 -2 -48 3 -33 3 -33 61 -36 l57 -3 0 -162
c0 -89 4 -168 9 -175 5 -9 24 -12 52 -10 l44 3 3 172 2 172 58 3 57 3 0 45 0
45 -168 3 c-138 2 -168 0 -173 -12z"/>
<path d="M3102 1944 c-135 -67 -163 -249 -55 -358 80 -81 225 -89 301 -16 l24
22 -32 33 -33 34 -36 -20 c-89 -48 -181 8 -181 110 0 33 7 49 33 76 42 47 91
55 145 27 l40 -20 31 32 c30 31 31 34 16 50 -61 60 -167 73 -253 30z"/>
<path d="M3587 1943 c-37 -75 -149 -405 -139 -415 5 -5 27 -8 48 -6 33 2 41 8
54 35 15 32 15 33 91 33 l75 0 15 -32 c13 -30 19 -33 62 -36 37 -2 47 0 47 13
0 20 -139 406 -152 423 -6 6 -28 12 -49 12 -32 0 -41 -5 -52 -27z m89 -250
c-7 -18 -76 -17 -76 1 0 12 20 77 37 116 7 18 46 -98 39 -117z"/>
<path d="M3934 1957 c-2 -7 -3 -107 -2 -222 l3 -210 44 -3 c55 -4 61 5 61 86
l0 62 30 0 c27 0 33 -7 64 -69 19 -38 42 -71 51 -75 25 -9 73 -7 80 4 3 5 -10
41 -29 79 l-36 70 26 18 c34 25 57 94 48 150 -9 63 -43 99 -105 112 -72 16
-228 14 -235 -2z m230 -109 c21 -30 20 -44 -4 -68 -15 -15 -33 -20 -70 -20
l-50 0 0 55 0 55 54 0 c45 0 58 -4 70 -22z"/>
<path d="M4377 1964 c-4 -4 -7 -103 -7 -220 0 -251 -19 -226 170 -222 l125 3
0 45 0 45 -92 3 -93 3 0 39 0 40 85 0 85 0 0 45 0 45 -85 0 -85 0 0 40 0 39
93 3 92 3 0 45 0 45 -141 3 c-77 1 -143 -1 -147 -4z"/>
<path d="M730 1265 c0 -3 14 -24 30 -47 31 -42 38 -72 20 -83 -19 -12 -10 -25
19 -25 28 0 29 1 24 40 -5 32 -1 46 21 74 32 43 32 46 0 46 -20 0 -24 -3 -16
-13 7 -8 6 -18 -4 -32 -15 -20 -15 -20 -30 0 -8 11 -12 25 -10 32 4 9 -4 13
-24 13 -17 0 -30 -2 -30 -5z"/>
<path d="M952 1260 c-28 -12 -46 -51 -38 -85 16 -64 86 -86 131 -40 65 65 -5
160 -93 125z m72 -32 c20 -28 20 -72 1 -88 -33 -27 -85 15 -85 68 0 44 58 57
84 20z"/>
<path d="M1115 1240 c3 -16 7 -44 10 -62 10 -62 56 -85 103 -52 18 12 22 25
22 68 0 28 5 57 12 64 9 9 6 12 -13 12 -25 0 -25 -2 -21 -58 4 -62 -9 -87 -45
-80 -14 2 -19 16 -23 56 -3 30 -2 56 2 58 18 11 6 24 -22 24 -27 0 -29 -2 -25
-30z"/>
<path d="M1315 1190 l0 -80 28 0 c15 0 27 5 27 10 0 6 -4 10 -10 10 -5 0 -10
11 -10 25 0 33 10 32 50 -10 19 -19 40 -35 47 -35 19 0 16 8 -16 42 -28 30
-28 33 -14 55 14 21 14 25 -2 43 -12 14 -31 20 -59 20 l-41 0 0 -80z m75 35
c0 -18 -5 -25 -20 -25 -15 0 -20 7 -20 25 0 18 5 25 20 25 15 0 20 -7 20 -25z"/>
<path d="M1565 1190 l0 -80 28 0 c27 0 36 13 17 25 -5 3 -10 15 -10 26 0 15 7
19 36 19 36 0 37 0 31 -35 -5 -32 -4 -35 18 -35 26 0 41 15 25 25 -14 9 -13
108 2 123 9 9 5 12 -19 12 -31 0 -32 -1 -26 -35 5 -34 5 -35 -26 -35 -36 0
-50 22 -32 51 10 17 8 19 -16 19 l-28 0 0 -80z"/>
<path d="M1765 1193 l0 -78 39 -3 c48 -3 76 5 76 23 0 12 -5 12 -24 3 -32 -14
-56 -4 -56 23 0 17 5 20 24 17 21 -4 36 7 36 26 0 1 -12 2 -27 1 -21 0 -28 5
-28 20 0 16 6 20 33 19 21 -1 32 3 32 12 0 10 -14 14 -52 14 l-53 0 0 -77z"/>
<path d="M1981 1248 c-8 -20 -47 -108 -59 -130 -2 -5 6 -8 17 -8 15 0 21 6 21
21 0 17 5 20 33 17 24 -2 31 -7 29 -20 -2 -13 4 -18 22 -18 14 0 28 5 31 10 3
6 2 10 -3 10 -5 0 -21 29 -37 65 -32 75 -42 85 -54 53z m23 -54 c9 -23 8 -24
-14 -24 -11 0 -20 2 -20 4 0 12 13 36 20 36 4 0 11 -7 14 -16z"/>
<path d="M2128 1200 c3 -47 1 -70 -7 -70 -6 0 -11 -3 -11 -7 0 -5 24 -9 54
-10 38 -2 58 2 66 12 17 21 6 29 -20 15 -41 -22 -53 -6 -48 65 4 60 3 65 -17
65 -19 0 -20 -5 -17 -70z"/>
<path d="M2277 1263 c-4 -3 -7 -13 -7 -21 0 -12 3 -12 15 -2 28 23 45 4 45
-49 0 -27 -4 -53 -10 -56 -21 -13 -9 -25 25 -25 19 0 35 5 35 10 0 6 -4 10
-10 10 -6 0 -10 27 -10 61 0 60 0 61 25 55 18 -5 25 -2 25 9 0 12 -13 15 -63
15 -35 0 -67 -3 -70 -7z"/>
<path d="M2458 1258 c14 -14 16 -114 2 -123 -20 -12 -10 -25 19 -25 28 0 29 2
24 35 -5 34 -4 35 25 35 32 0 50 -24 32 -45 -13 -15 -3 -25 27 -25 24 0 31 14
13 25 -5 3 -10 28 -10 55 0 27 5 52 10 55 20 12 9 25 -20 25 -27 0 -30 -2 -20
-19 15 -30 2 -51 -32 -51 -29 0 -30 1 -25 35 6 34 5 35 -26 35 -24 0 -28 -3
-19 -12z"/>
<path d="M2833 1260 c-31 -13 -46 -46 -39 -86 12 -63 86 -85 131 -39 65 64 -5
160 -92 125z m71 -32 c30 -43 15 -98 -26 -98 -44 0 -77 77 -46 108 19 19 55
14 72 -10z"/>
<path d="M3000 1209 c8 -87 53 -122 108 -83 18 12 22 25 22 68 0 28 5 57 12
64 9 9 6 12 -13 12 -25 0 -26 -2 -21 -55 5 -60 -7 -85 -39 -85 -31 0 -56 99
-29 115 19 12 10 25 -18 25 l-28 0 6 -61z"/>
<path d="M3195 1191 l0 -78 28 -1 c15 0 27 4 27 9 0 5 -4 9 -10 9 -5 0 -10 11
-10 25 0 33 10 32 50 -10 19 -19 40 -35 47 -35 19 0 16 8 -17 43 -26 28 -27
33 -15 47 8 9 15 21 15 27 0 21 -38 43 -76 43 l-39 0 0 -79z m79 43 c8 -21 -1
-34 -25 -34 -14 0 -19 7 -19 25 0 29 34 36 44 9z"/>
<path d="M3445 1193 l0 -78 35 -2 c51 -3 80 5 80 22 0 12 -5 12 -24 3 -40 -18
-56 -5 -56 47 0 26 5 55 10 66 9 17 7 19 -17 19 l-28 0 0 -77z"/>
<path d="M3605 1190 l0 -80 28 0 c27 0 36 13 17 25 -13 8 -13 91 0 116 9 17 7
19 -17 19 l-28 0 0 -80z"/>
<path d="M3740 1257 c-30 -15 -45 -54 -36 -91 13 -51 126 -76 126 -28 0 10 5
23 12 30 9 9 3 12 -27 12 -35 0 -37 -1 -20 -13 21 -16 13 -37 -15 -37 -41 0
-67 83 -35 110 9 8 28 10 51 5 28 -5 35 -3 32 7 -6 18 -57 21 -88 5z"/>
<path d="M3895 1190 l0 -80 28 0 c28 0 34 9 17 26 -19 19 0 44 32 44 29 0 30
-1 25 -35 -5 -33 -4 -35 24 -35 16 0 29 5 29 10 0 6 -4 10 -10 10 -14 0 -12
114 2 128 9 9 5 12 -19 12 -31 0 -32 -1 -26 -35 5 -34 5 -35 -26 -35 -36 0
-48 18 -31 49 10 19 8 21 -17 21 l-28 0 0 -80z"/>
<path d="M4090 1256 c0 -9 8 -12 25 -8 24 4 25 3 25 -57 0 -34 -4 -61 -10 -61
-5 0 -10 -4 -10 -10 0 -5 16 -10 35 -10 19 0 35 5 35 10 0 6 -4 10 -10 10 -6
0 -10 27 -10 60 0 60 0 61 26 58 15 -2 29 3 31 10 4 9 -14 12 -66 12 -53 0
-71 -3 -71 -14z"/>
<path d="M2660 1131 c0 -11 -3 -28 -6 -38 -6 -15 -4 -15 16 4 14 13 20 28 17
37 -9 22 -27 20 -27 -3z"/>
</g>
</svg>
